<svg width="25" height="25" viewBox="0 0 25 25" fill="none" xmlns="http://www.w3.org/2000/svg">
<path d="M7.80621 4.85802L19.1286 16.1804C19.9097 16.9615 19.9097 18.2278 19.1286 19.0089L17.9955 20.142L6.6731 8.81955C5.89205 8.0385 5.89205 6.77218 6.6731 5.99113L7.80621 4.85802Z" fill="#787070"/>
<path d="M21.5061 23C21.5061 24.1046 20.6107 25 19.5061 25H5.49383C4.38926 25 3.49383 24.1046 3.49383 23V21.3975H21.5061V23Z" fill="#787070"/>
<path d="M23 3.49385C24.1046 3.49385 25 4.38928 25 5.49385V19.5062C25 20.6107 24.1046 21.5062 23 21.5062H21.3975V3.49385H23Z" fill="#787070"/>
<path d="M3.49387 2C3.49387 0.895429 4.3893 0 5.49387 0H19.5062C20.6107 0 21.5062 0.89543 21.5062 2V3.60246H3.49387V2Z" fill="#787070"/>
<path d="M2 21.5061C0.895429 21.5061 0 20.6107 0 19.5061V5.49385C0 4.38928 0.89543 3.49385 2 3.49385H3.60246V21.5061H2Z" fill="#787070"/>
</svg>
